<svg width="269" height="934" viewBox="0 0 269 934" fill="none" xmlns="http://www.w3.org/2000/svg">
<mask id="path-1-outside-1_46_323" maskUnits="userSpaceOnUse" x="-10" y="-20" width="289" height="964" fill="black">
<rect fill="white" x="-10" y="-20" width="289" height="964"/>
<path d="M54.17 799.59L54.17 873.84L269 873.84L269 933.9L45.59 933.9C18.2 933.9 0.379995 916.74 0.379994 888.69L0.379987 739.53L269 739.53L269 799.59L54.17 799.59ZM269 691.863L0.379985 691.863L0.379977 509.703L54.17 549.633L54.17 631.143L104.33 631.143L104.33 544.023L154.49 544.023L154.49 631.143L215.21 631.143L215.21 524.553L269 524.553L269 691.863ZM269 329.232C269 351.672 256.46 363.882 236.66 368.172L269 389.622L269 426.582C269 451.002 256.79 463.542 234.02 466.842L0.379977 500.502L0.379974 437.802L215.21 409.092L215.21 370.482L0.379972 393.252L0.379969 333.522L215.21 314.712L215.21 296.562L0.379967 274.452L0.379964 212.082L269 247.392L269 329.232ZM215.21 72.4633L159.11 72.4633L159.11 185.323L45.59 185.323C18.1999 185.323 0.379962 168.163 0.379961 140.113L0.379955 0.193355L54.17 40.1234L54.17 124.273L107.63 124.273L107.63 11.4133L224.12 11.4133C251.51 11.4133 269 28.5733 269 56.6233L269 185.983L215.21 185.983L215.21 72.4633Z"/>
</mask>
<path d="M54.17 799.59L54.17 873.84L269 873.84L269 933.9L45.59 933.9C18.2 933.9 0.379995 916.74 0.379994 888.69L0.379987 739.53L269 739.53L269 799.59L54.17 799.59ZM269 691.863L0.379985 691.863L0.379977 509.703L54.17 549.633L54.17 631.143L104.33 631.143L104.33 544.023L154.49 544.023L154.49 631.143L215.21 631.143L215.21 524.553L269 524.553L269 691.863ZM269 329.232C269 351.672 256.46 363.882 236.66 368.172L269 389.622L269 426.582C269 451.002 256.79 463.542 234.02 466.842L0.379977 500.502L0.379974 437.802L215.21 409.092L215.21 370.482L0.379972 393.252L0.379969 333.522L215.21 314.712L215.21 296.562L0.379967 274.452L0.379964 212.082L269 247.392L269 329.232ZM215.21 72.4633L159.11 72.4633L159.11 185.323L45.59 185.323C18.1999 185.323 0.379962 168.163 0.379961 140.113L0.379955 0.193355L54.17 40.1234L54.17 124.273L107.63 124.273L107.63 11.4133L224.12 11.4133C251.51 11.4133 269 28.5733 269 56.6233L269 185.983L215.21 185.983L215.21 72.4633Z" fill="white"/>
<path d="M54.17 799.59L54.17 789.59L44.17 789.59L44.17 799.59L54.17 799.59ZM54.17 873.84L44.17 873.84L44.17 883.84L54.17 883.84L54.17 873.84ZM269 873.84L279 873.84L279 863.84L269 863.84L269 873.84ZM269 933.9L269 943.9L279 943.9L279 933.9L269 933.9ZM0.379988 739.53L0.379987 729.53L-9.62001 729.53L-9.62001 739.53L0.379988 739.53ZM269 739.53L279 739.53L279 729.53L269 729.53L269 739.53ZM269 799.59L269 809.59L279 809.59L279 799.59L269 799.59ZM44.17 799.59L44.17 873.84L64.17 873.84L64.17 799.59L44.17 799.59ZM54.17 883.84L269 883.84L269 863.84L54.17 863.84L54.17 883.84ZM259 873.84L259 933.9L279 933.9L279 873.84L259 873.84ZM269 923.9L45.59 923.9L45.59 943.9L269 943.9L269 923.9ZM45.59 923.9C34.0016 923.9 25.4098 920.309 19.7475 914.706C14.102 909.119 10.38 900.556 10.38 888.69L-9.62001 888.69C-9.62001 904.874 -4.43199 918.916 5.67998 928.922C15.7751 938.911 29.7884 943.9 45.59 943.9L45.59 923.9ZM10.38 888.69L10.38 739.53L-9.62001 739.53L-9.62001 888.69L10.38 888.69ZM0.379988 749.53L269 749.53L269 729.53L0.379987 729.53L0.379988 749.53ZM259 739.53L259 799.59L279 799.59L279 739.53L259 739.53ZM269 789.59L54.17 789.59L54.17 809.59L269 809.59L269 789.59ZM269 691.863L269 701.863L279 701.863L279 691.863L269 691.863ZM0.379986 691.863L-9.62001 691.863L-9.62001 701.863L0.379986 701.863L0.379986 691.863ZM0.379978 509.703L6.3405 501.674L-9.62002 489.826L-9.62002 509.703L0.379978 509.703ZM54.17 549.633L64.17 549.633L64.17 544.602L60.1305 541.604L54.17 549.633ZM54.17 631.143L44.17 631.143L44.17 641.143L54.17 641.143L54.17 631.143ZM104.33 631.143L104.33 641.143L114.33 641.143L114.33 631.143L104.33 631.143ZM104.33 544.023L104.33 534.023L94.33 534.023L94.33 544.023L104.33 544.023ZM154.49 544.023L164.49 544.023L164.49 534.023L154.49 534.023L154.49 544.023ZM154.49 631.143L144.49 631.143L144.49 641.143L154.49 641.143L154.49 631.143ZM215.21 631.143L215.21 641.143L225.21 641.143L225.21 631.143L215.21 631.143ZM215.21 524.553L215.21 514.553L205.21 514.553L205.21 524.553L215.21 524.553ZM269 524.553L279 524.553L279 514.553L269 514.553L269 524.553ZM269 681.863L0.379985 681.863L0.379986 701.863L269 701.863L269 681.863ZM10.38 691.863L10.38 509.703L-9.62002 509.703L-9.62001 691.863L10.38 691.863ZM-5.58054 517.733L48.2095 557.662L60.1305 541.604L6.3405 501.674L-5.58054 517.733ZM44.17 549.633L44.17 631.143L64.17 631.143L64.17 549.633L44.17 549.633ZM54.17 641.143L104.33 641.143L104.33 621.143L54.17 621.143L54.17 641.143ZM114.33 631.143L114.33 544.023L94.33 544.023L94.33 631.143L114.33 631.143ZM104.33 554.023L154.49 554.023L154.49 534.023L104.33 534.023L104.33 554.023ZM144.49 544.023L144.49 631.143L164.49 631.143L164.49 544.023L144.49 544.023ZM154.49 641.143L215.21 641.143L215.21 621.143L154.49 621.143L154.49 641.143ZM225.21 631.143L225.21 524.553L205.21 524.553L205.21 631.143L225.21 631.143ZM215.21 534.553L269 534.553L269 514.553L215.21 514.553L215.21 534.553ZM259 524.553L259 691.863L279 691.863L279 524.553L259 524.553ZM236.66 368.172L234.542 358.398L211.395 363.414L231.133 376.505L236.66 368.172ZM269 389.622L279 389.622L279 384.255L274.527 381.288L269 389.622ZM234.02 466.842L235.446 476.74L235.454 476.738L234.02 466.842ZM0.379977 500.502L-9.62002 500.502L-9.62002 512.046L1.80593 510.4L0.379977 500.502ZM0.379975 437.802L-0.944657 427.89L-9.62003 429.049L-9.62003 437.802L0.379975 437.802ZM215.21 409.092L216.535 419.004L225.21 417.844L225.21 409.092L215.21 409.092ZM215.21 370.482L225.21 370.482L225.21 359.366L214.156 360.537L215.21 370.482ZM0.379973 393.252L-9.62003 393.252L-9.62003 404.368L1.43397 403.196L0.379973 393.252ZM0.37997 333.522L-0.492269 323.56L-9.62003 324.359L-9.62003 333.522L0.37997 333.522ZM215.21 314.712L216.082 324.674L225.21 323.874L225.21 314.712L215.21 314.712ZM215.21 296.562L225.21 296.562L225.21 287.538L216.234 286.614L215.21 296.562ZM0.379967 274.452L-9.62003 274.452L-9.62003 283.475L-0.643813 284.399L0.379967 274.452ZM0.379965 212.082L1.68325 202.167L-9.62004 200.681L-9.62004 212.082L0.379965 212.082ZM269 247.392L279 247.392L279 238.62L270.303 237.477L269 247.392ZM259 329.232C259 338.505 256.457 344.675 252.738 348.913C248.927 353.257 243.003 356.565 234.542 358.398L238.778 377.945C250.117 375.488 260.363 370.547 267.772 362.103C275.273 353.554 279 342.398 279 329.232L259 329.232ZM231.133 376.505L263.473 397.955L274.527 381.288L242.187 359.838L231.133 376.505ZM259 389.622L259 426.582L279 426.582L279 389.622L259 389.622ZM259 426.582C259 437.146 256.382 443.728 252.593 447.968C248.759 452.257 242.516 455.506 232.586 456.945L235.454 476.738C248.294 474.877 259.541 470.206 267.505 461.296C275.513 452.336 279 440.438 279 426.582L259 426.582ZM232.594 456.944L-1.04598 490.604L1.80593 510.4L235.446 476.74L232.594 456.944ZM10.38 500.502L10.38 437.802L-9.62003 437.802L-9.62002 500.502L10.38 500.502ZM1.70461 447.714L216.535 419.004L213.885 399.18L-0.944657 427.89L1.70461 447.714ZM225.21 409.092L225.21 370.482L205.21 370.482L205.21 409.092L225.21 409.092ZM214.156 360.537L-0.674036 383.307L1.43397 403.196L216.264 380.426L214.156 360.537ZM10.38 393.252L10.38 333.522L-9.62003 333.522L-9.62003 393.252L10.38 393.252ZM1.25221 343.484L216.082 324.674L214.338 304.75L-0.492269 323.56L1.25221 343.484ZM225.21 314.712L225.21 296.562L205.21 296.562L205.21 314.712L225.21 314.712ZM216.234 286.614L1.40374 264.504L-0.643813 284.399L214.186 306.509L216.234 286.614ZM10.38 274.452L10.38 212.082L-9.62004 212.082L-9.62003 274.452L10.38 274.452ZM-0.923319 221.996L267.697 257.306L270.303 237.477L1.68325 202.167L-0.923319 221.996ZM259 247.392L259 329.232L279 329.232L279 247.392L259 247.392ZM215.21 72.4634L225.21 72.4634L225.21 62.4634L215.21 62.4634L215.21 72.4634ZM159.11 72.4634L159.11 62.4634L149.11 62.4634L149.11 72.4634L159.11 72.4634ZM159.11 185.323L159.11 195.323L169.11 195.323L169.11 185.323L159.11 185.323ZM0.379955 0.193355L6.34047 -7.83612L-9.62005 -19.6841L-9.62004 0.193356L0.379955 0.193355ZM54.17 40.1233L64.17 40.1233L64.17 35.0925L60.1305 32.0939L54.17 40.1233ZM54.17 124.273L44.17 124.273L44.17 134.273L54.17 134.273L54.17 124.273ZM107.63 124.273L107.63 134.273L117.63 134.273L117.63 124.273L107.63 124.273ZM107.63 11.4133L107.63 1.41332L97.6299 1.41332L97.6299 11.4133L107.63 11.4133ZM269 185.983L269 195.983L279 195.983L279 185.983L269 185.983ZM215.21 185.983L205.21 185.983L205.21 195.983L215.21 195.983L215.21 185.983ZM215.21 62.4634L159.11 62.4634L159.11 82.4634L215.21 82.4634L215.21 62.4634ZM149.11 72.4634L149.11 185.323L169.11 185.323L169.11 72.4634L149.11 72.4634ZM159.11 175.323L45.5899 175.323L45.5899 195.323L159.11 195.323L159.11 175.323ZM45.5899 175.323C34.0016 175.323 25.4098 171.732 19.7475 166.129C14.1019 160.543 10.38 151.979 10.38 140.113L-9.62004 140.113C-9.62004 156.297 -4.43203 170.339 5.67995 180.345C15.7751 190.335 29.7883 195.323 45.5899 195.323L45.5899 175.323ZM10.38 140.113L10.38 0.193355L-9.62004 0.193356L-9.62004 140.113L10.38 140.113ZM-5.58056 8.22284L48.2094 48.1528L60.1305 32.0939L6.34047 -7.83612L-5.58056 8.22284ZM44.17 40.1233L44.17 124.273L64.17 124.273L64.17 40.1233L44.17 40.1233ZM54.17 134.273L107.63 134.273L107.63 114.273L54.17 114.273L54.17 134.273ZM117.63 124.273L117.63 11.4133L97.6299 11.4133L97.63 124.273L117.63 124.273ZM107.63 21.4133L224.12 21.4133L224.12 1.41332L107.63 1.41332L107.63 21.4133ZM224.12 21.4133C235.703 21.4133 244.19 25 249.76 30.5707C255.327 36.1377 259 44.7043 259 56.6233L279 56.6233C279 40.4924 273.928 26.454 263.902 16.4285C253.88 6.40666 239.927 1.41332 224.12 1.41332L224.12 21.4133ZM259 56.6233L259 185.983L279 185.983L279 56.6233L259 56.6233ZM269 175.983L215.21 175.983L215.21 195.983L269 195.983L269 175.983ZM225.21 185.983L225.21 72.4634L205.21 72.4634L205.21 185.983L225.21 185.983Z" fill="#D10F31" mask="url(#path-1-outside-1_46_323)"/>
</svg>
