<svg width="310" height="971" viewBox="0 0 310 971" fill="none" xmlns="http://www.w3.org/2000/svg">
<path d="M80.17 813.59L80.17 887.84L295 887.84L295 947.9L71.59 947.9C44.2 947.9 26.38 930.74 26.38 902.69L26.38 753.53L295 753.53L295 813.59L80.17 813.59ZM295 705.863L26.38 705.863L26.38 523.703L80.17 563.633L80.17 645.143L130.33 645.143L130.33 558.023L180.49 558.023L180.49 645.143L241.21 645.143L241.21 538.553L295 538.553L295 705.863ZM295 343.232C295 365.672 282.46 377.882 262.66 382.172L295 403.622L295 440.582C295 465.002 282.79 477.542 260.02 480.842L26.38 514.502L26.38 451.802L241.21 423.092L241.21 384.482L26.38 407.252L26.38 347.522L241.21 328.712L241.21 310.562L26.38 288.452L26.38 226.082L295 261.392L295 343.232ZM241.21 86.4633L185.11 86.4633L185.11 199.323L71.5899 199.323C44.1999 199.323 26.38 182.163 26.38 154.113L26.3799 14.1934L80.1699 54.1234L80.1699 138.273L133.63 138.273L133.63 25.4133L250.12 25.4133C277.51 25.4133 295 42.5733 295 70.6233L295 199.983L241.21 199.983L241.21 86.4633Z" fill="white"/>
<path d="M80.17 813.59L80.17 808.59L75.17 808.59L75.17 813.59L80.17 813.59ZM80.17 887.84L75.17 887.84L75.17 892.84L80.17 892.84L80.17 887.84ZM295 887.84L300 887.84L300 882.84L295 882.84L295 887.84ZM295 947.9L295 952.9L300 952.9L300 947.9L295 947.9ZM26.38 753.53L26.38 748.53L21.38 748.53L21.38 753.53L26.38 753.53ZM295 753.53L300 753.53L300 748.53L295 748.53L295 753.53ZM295 813.59L295 818.59L300 818.59L300 813.59L295 813.59ZM75.17 813.59L75.17 887.84L85.17 887.84L85.17 813.59L75.17 813.59ZM80.17 892.84L295 892.84L295 882.84L80.17 882.84L80.17 892.84ZM290 887.84L290 947.9L300 947.9L300 887.84L290 887.84ZM295 942.9L71.59 942.9L71.59 952.9L295 952.9L295 942.9ZM71.59 942.9C58.9483 942.9 49.0012 938.959 42.2306 932.26C35.4685 925.568 31.38 915.636 31.38 902.69L21.38 902.69C21.38 917.794 26.2015 930.467 35.1969 939.368C44.1838 948.261 56.8417 952.9 71.59 952.9L71.59 942.9ZM31.38 902.69L31.38 753.53L21.38 753.53L21.38 902.69L31.38 902.69ZM26.38 758.53L295 758.53L295 748.53L26.38 748.53L26.38 758.53ZM290 753.53L290 813.59L300 813.59L300 753.53L290 753.53ZM295 808.59L80.17 808.59L80.17 818.59L295 818.59L295 808.59ZM295 705.863L295 710.863L300 710.863L300 705.863L295 705.863ZM26.38 705.863L21.38 705.863L21.38 710.863L26.38 710.863L26.38 705.863ZM26.38 523.703L29.3602 519.688L21.38 513.764L21.38 523.703L26.38 523.703ZM80.17 563.633L85.17 563.633L85.17 561.118L83.1502 559.618L80.17 563.633ZM80.17 645.143L75.17 645.143L75.17 650.143L80.17 650.143L80.17 645.143ZM130.33 645.143L130.33 650.143L135.33 650.143L135.33 645.143L130.33 645.143ZM130.33 558.023L130.33 553.023L125.33 553.023L125.33 558.023L130.33 558.023ZM180.49 558.023L185.49 558.023L185.49 553.023L180.49 553.023L180.49 558.023ZM180.49 645.143L175.49 645.143L175.49 650.143L180.49 650.143L180.49 645.143ZM241.21 645.143L241.21 650.143L246.21 650.143L246.21 645.143L241.21 645.143ZM241.21 538.553L241.21 533.553L236.21 533.553L236.21 538.553L241.21 538.553ZM295 538.553L300 538.553L300 533.553L295 533.553L295 538.553ZM295 700.863L26.38 700.863L26.38 710.863L295 710.863L295 700.863ZM31.38 705.863L31.38 523.703L21.38 523.703L21.38 705.863L31.38 705.863ZM23.3997 527.718L77.1897 567.648L83.1502 559.618L29.3602 519.688L23.3997 527.718ZM75.17 563.633L75.17 645.143L85.17 645.143L85.17 563.633L75.17 563.633ZM80.17 650.143L130.33 650.143L130.33 640.143L80.17 640.143L80.17 650.143ZM135.33 645.143L135.33 558.023L125.33 558.023L125.33 645.143L135.33 645.143ZM130.33 563.023L180.49 563.023L180.49 553.023L130.33 553.023L130.33 563.023ZM175.49 558.023L175.49 645.143L185.49 645.143L185.49 558.023L175.49 558.023ZM180.49 650.143L241.21 650.143L241.21 640.143L180.49 640.143L180.49 650.143ZM246.21 645.143L246.21 538.553L236.21 538.553L236.21 645.143L246.21 645.143ZM241.21 543.553L295 543.553L295 533.553L241.21 533.553L241.21 543.553ZM290 538.553L290 705.863L300 705.863L300 538.553L290 538.553ZM262.66 382.172L261.601 377.285L250.027 379.793L259.896 386.338L262.66 382.172ZM295 403.622L300 403.622L300 400.938L297.764 399.455L295 403.622ZM260.02 480.842L260.733 485.791L260.737 485.79L260.02 480.842ZM26.38 514.502L21.38 514.502L21.38 520.274L27.0929 519.451L26.38 514.502ZM26.38 451.802L25.7177 446.846L21.38 447.425L21.38 451.802L26.38 451.802ZM241.21 423.092L241.872 428.048L246.21 427.468L246.21 423.092L241.21 423.092ZM241.21 384.482L246.21 384.482L246.21 378.924L240.683 379.51L241.21 384.482ZM26.38 407.252L21.38 407.252L21.38 412.81L26.907 412.224L26.38 407.252ZM26.38 347.522L25.9438 342.541L21.38 342.94L21.38 347.522L26.38 347.522ZM241.21 328.712L241.646 333.693L246.21 333.293L246.21 328.712L241.21 328.712ZM241.21 310.562L246.21 310.562L246.21 306.05L241.722 305.588L241.21 310.562ZM26.38 288.452L21.38 288.452L21.38 292.964L25.8681 293.425L26.38 288.452ZM26.38 226.082L27.0316 221.124L21.38 220.381L21.38 226.082L26.38 226.082ZM295 261.392L300 261.392L300 257.006L295.652 256.434L295 261.392ZM290 343.232C290 353.478 287.161 360.894 282.497 366.21C277.786 371.579 270.781 375.296 261.601 377.285L263.719 387.058C274.338 384.757 283.504 380.224 290.013 372.806C296.569 365.334 300 355.425 300 343.232L290 343.232ZM259.896 386.338L292.236 407.788L297.764 399.455L265.424 378.005L259.896 386.338ZM290 403.622L290 440.582L300 440.582L300 403.622L290 403.622ZM290 440.582C290 451.969 287.165 459.88 282.321 465.3C277.454 470.745 269.96 474.349 259.303 475.893L260.737 485.79C272.85 484.035 282.845 479.719 289.777 471.964C296.73 464.184 300 453.615 300 440.582L290 440.582ZM259.307 475.893L25.667 509.553L27.0929 519.451L260.733 485.791L259.307 475.893ZM31.38 514.502L31.38 451.802L21.38 451.802L21.38 514.502L31.38 514.502ZM27.0423 456.758L241.872 428.048L240.548 418.136L25.7177 446.846L27.0423 456.758ZM246.21 423.092L246.21 384.482L236.21 384.482L236.21 423.092L246.21 423.092ZM240.683 379.51L25.853 402.28L26.907 412.224L241.737 389.454L240.683 379.51ZM31.38 407.252L31.38 347.522L21.38 347.522L21.38 407.252L31.38 407.252ZM26.8161 352.503L241.646 333.693L240.774 323.731L25.9438 342.541L26.8161 352.503ZM246.21 328.712L246.21 310.562L236.21 310.562L236.21 328.712L246.21 328.712ZM241.722 305.588L26.8918 283.478L25.8681 293.425L240.698 315.535L241.722 305.588ZM31.38 288.452L31.38 226.082L21.38 226.082L21.38 288.452L31.38 288.452ZM25.7283 231.039L294.348 266.349L295.652 256.434L27.0316 221.124L25.7283 231.039ZM290 261.392L290 343.232L300 343.232L300 261.392L290 261.392ZM241.21 86.4633L246.21 86.4633L246.21 81.4633L241.21 81.4633L241.21 86.4633ZM185.11 86.4633L185.11 81.4633L180.11 81.4633L180.11 86.4633L185.11 86.4633ZM185.11 199.323L185.11 204.323L190.11 204.323L190.11 199.323L185.11 199.323ZM26.3799 14.1934L29.3602 10.1786L21.3799 4.25463L21.3799 14.1934L26.3799 14.1934ZM80.1699 54.1234L85.1699 54.1234L85.1699 51.6079L83.1502 50.1086L80.1699 54.1234ZM80.1699 138.273L75.1699 138.273L75.1699 143.273L80.1699 143.273L80.1699 138.273ZM133.63 138.273L133.63 143.273L138.63 143.273L138.63 138.273L133.63 138.273ZM133.63 25.4133L133.63 20.4133L128.63 20.4133L128.63 25.4133L133.63 25.4133ZM295 199.983L295 204.983L300 204.983L300 199.983L295 199.983ZM241.21 199.983L236.21 199.983L236.21 204.983L241.21 204.983L241.21 199.983ZM241.21 81.4633L185.11 81.4633L185.11 91.4633L241.21 91.4633L241.21 81.4633ZM180.11 86.4633L180.11 199.323L190.11 199.323L190.11 86.4633L180.11 86.4633ZM185.11 194.323L71.5899 194.323L71.5899 204.323L185.11 204.323L185.11 194.323ZM71.5899 194.323C58.9482 194.323 49.0011 190.383 42.2306 183.683C35.4684 176.992 31.38 167.059 31.38 154.113L21.38 154.113C21.38 169.218 26.2015 181.89 35.1968 190.791C44.1838 199.684 56.8416 204.323 71.5899 204.323L71.5899 194.323ZM31.38 154.113L31.3799 14.1934L21.3799 14.1934L21.38 154.113L31.38 154.113ZM23.3997 18.2081L77.1897 58.1381L83.1502 50.1086L29.3602 10.1786L23.3997 18.2081ZM75.1699 54.1234L75.1699 138.273L85.1699 138.273L85.1699 54.1234L75.1699 54.1234ZM80.1699 143.273L133.63 143.273L133.63 133.273L80.1699 133.273L80.1699 143.273ZM138.63 138.273L138.63 25.4133L128.63 25.4133L128.63 138.273L138.63 138.273ZM133.63 30.4133L250.12 30.4133L250.12 20.4133L133.63 20.4133L133.63 30.4133ZM250.12 30.4133C262.759 30.4133 272.612 34.3517 279.296 41.0351C285.977 47.7168 290 57.6513 290 70.6233L300 70.6233C300 55.5454 295.278 42.8749 286.367 33.9641C277.458 25.055 264.871 20.4133 250.12 20.4133L250.12 30.4133ZM290 70.6233L290 199.983L300 199.983L300 70.6233L290 70.6233ZM295 194.983L241.21 194.983L241.21 204.983L295 204.983L295 194.983ZM246.21 199.983L246.21 86.4633L236.21 86.4633L236.21 199.983L246.21 199.983Z" fill="#D33854"/>
</svg>
